<svg width="32" height="32" viewBox="0 0 40 40" fill="none" xmlns="http://www.w3.org/2000/svg">
  <defs>
    <linearGradient id="favGrad" x1="0%" y1="0%" x2="100%" y2="100%">
      <stop offset="0%" stopColor="#FB923C" />
      <stop offset="33%" stopColor="#F26B7A" />
      <stop offset="66%" stopColor="#8B5CF6" />
      <stop offset="100%" stopColor="#D946EF" />
    </linearGradient>
  </defs>
  <circle cx="20" cy="20" r="20" fill="#0f172a" />
  <circle cx="20" cy="20" r="16" stroke="white" stroke-width="1" stroke-opacity="0.1" />
  <path d="M 20 4 A 16 16 0 0 1 36 20" stroke="url(#favGrad)" stroke-width="2.8" stroke-linecap="round" />
  <g transform="translate(20, 20)">
    <path d="M -5 -6 C -6.5 -6 -7.5 -5 -7.5 -4 L -7.5 4 C -7.5 5 -6.5 6 -5 6 C -3.5 6 6.5 2 7.5 1 C 8.5 0 8.5 -1 7.5 -2 C 6.5 -3 -3.5 -6 -5 -6 Z" fill="url(#favGrad)" />
    <circle cx="0" cy="0" r="1.5" fill="white" />
  </g>
</svg>
